<mxfile host="app.diagrams.net" modified="2022-06-27T10:24:20.261Z" agent="5.0 (Windows)" etag="gKJt-3FZpqEMyE32dwbl" version="17.4.1" type="github">
  <diagram id="5tp1O4cuZH25pByPiNw1" name="Page-1">
    <mxGraphModel dx="1422" dy="775" grid="1" gridSize="10" guides="1" tooltips="1" connect="1" arrows="1" fold="1" page="1" pageScale="1" pageWidth="1654" pageHeight="1169" math="0" shadow="0">
      <root>
        <mxCell id="0" />
        <mxCell id="1" parent="0" />
        <mxCell id="vfYZdor9qe7EB0yujMtW-1" value="Actor" style="shape=umlActor;verticalLabelPosition=bottom;verticalAlign=top;html=1;outlineConnect=0;" vertex="1" parent="1">
          <mxGeometry x="60" y="340" width="30" height="60" as="geometry" />
        </mxCell>
        <mxCell id="vfYZdor9qe7EB0yujMtW-10" style="edgeStyle=orthogonalEdgeStyle;rounded=0;orthogonalLoop=1;jettySize=auto;html=1;" edge="1" parent="1" source="vfYZdor9qe7EB0yujMtW-2" target="vfYZdor9qe7EB0yujMtW-7">
          <mxGeometry relative="1" as="geometry" />
        </mxCell>
        <mxCell id="vfYZdor9qe7EB0yujMtW-2" value="" style="rounded=1;whiteSpace=wrap;html=1;" vertex="1" parent="1">
          <mxGeometry x="110" y="270" width="320" height="210" as="geometry" />
        </mxCell>
        <mxCell id="vfYZdor9qe7EB0yujMtW-3" value="Cognito Login" style="rounded=1;whiteSpace=wrap;html=1;" vertex="1" parent="1">
          <mxGeometry x="270" y="290" width="120" height="60" as="geometry" />
        </mxCell>
        <mxCell id="vfYZdor9qe7EB0yujMtW-4" value="Ad Login" style="rounded=1;whiteSpace=wrap;html=1;" vertex="1" parent="1">
          <mxGeometry x="270" y="390" width="120" height="60" as="geometry" />
        </mxCell>
        <mxCell id="vfYZdor9qe7EB0yujMtW-5" value="id token" style="shape=parallelogram;perimeter=parallelogramPerimeter;whiteSpace=wrap;html=1;fixedSize=1;" vertex="1" parent="1">
          <mxGeometry x="320" y="170" width="120" height="60" as="geometry" />
        </mxCell>
        <mxCell id="vfYZdor9qe7EB0yujMtW-6" value="Jwt token" style="shape=parallelogram;perimeter=parallelogramPerimeter;whiteSpace=wrap;html=1;fixedSize=1;" vertex="1" parent="1">
          <mxGeometry x="340" y="510" width="120" height="60" as="geometry" />
        </mxCell>
        <mxCell id="vfYZdor9qe7EB0yujMtW-18" style="edgeStyle=orthogonalEdgeStyle;rounded=0;orthogonalLoop=1;jettySize=auto;html=1;" edge="1" parent="1" source="vfYZdor9qe7EB0yujMtW-7" target="vfYZdor9qe7EB0yujMtW-14">
          <mxGeometry relative="1" as="geometry">
            <Array as="points">
              <mxPoint x="610" y="255" />
            </Array>
          </mxGeometry>
        </mxCell>
        <mxCell id="vfYZdor9qe7EB0yujMtW-19" style="edgeStyle=orthogonalEdgeStyle;rounded=0;orthogonalLoop=1;jettySize=auto;html=1;entryX=0;entryY=0.5;entryDx=0;entryDy=0;exitX=0.5;exitY=1;exitDx=0;exitDy=0;" edge="1" parent="1" source="vfYZdor9qe7EB0yujMtW-7" target="vfYZdor9qe7EB0yujMtW-16">
          <mxGeometry relative="1" as="geometry" />
        </mxCell>
        <mxCell id="vfYZdor9qe7EB0yujMtW-7" value="HandleAuthentication" style="rounded=0;whiteSpace=wrap;html=1;" vertex="1" parent="1">
          <mxGeometry x="550" y="345" width="120" height="60" as="geometry" />
        </mxCell>
        <mxCell id="vfYZdor9qe7EB0yujMtW-21" style="edgeStyle=orthogonalEdgeStyle;rounded=0;orthogonalLoop=1;jettySize=auto;html=1;" edge="1" parent="1" source="vfYZdor9qe7EB0yujMtW-14">
          <mxGeometry relative="1" as="geometry">
            <mxPoint x="1050" y="255" as="targetPoint" />
          </mxGeometry>
        </mxCell>
        <mxCell id="vfYZdor9qe7EB0yujMtW-14" value="User has single account" style="rhombus;whiteSpace=wrap;html=1;" vertex="1" parent="1">
          <mxGeometry x="670" y="210" width="150" height="90" as="geometry" />
        </mxCell>
        <mxCell id="vfYZdor9qe7EB0yujMtW-24" style="edgeStyle=orthogonalEdgeStyle;rounded=0;orthogonalLoop=1;jettySize=auto;html=1;entryX=0;entryY=0.5;entryDx=0;entryDy=0;" edge="1" parent="1" source="vfYZdor9qe7EB0yujMtW-16">
          <mxGeometry relative="1" as="geometry">
            <mxPoint x="960" y="485" as="targetPoint" />
          </mxGeometry>
        </mxCell>
        <mxCell id="vfYZdor9qe7EB0yujMtW-16" value="User has multiple account" style="rhombus;whiteSpace=wrap;html=1;" vertex="1" parent="1">
          <mxGeometry x="677" y="440" width="143" height="90" as="geometry" />
        </mxCell>
        <mxCell id="vfYZdor9qe7EB0yujMtW-17" value="&lt;div&gt;pic &lt;br&gt;&lt;/div&gt;&lt;div&gt;autologin: true&lt;/div&gt;&lt;div&gt;accountlist: empty&lt;br&gt;&lt;/div&gt;" style="rounded=1;whiteSpace=wrap;html=1;" vertex="1" parent="1">
          <mxGeometry x="685" y="60" width="120" height="60" as="geometry" />
        </mxCell>
        <mxCell id="vfYZdor9qe7EB0yujMtW-20" value="&lt;div&gt;pic &lt;br&gt;&lt;/div&gt;&lt;div&gt;autologin: false&lt;br&gt;&lt;/div&gt;&lt;div&gt;Accountlist&lt;br&gt;&lt;/div&gt;" style="rounded=1;whiteSpace=wrap;html=1;" vertex="1" parent="1">
          <mxGeometry x="707" y="585" width="120" height="60" as="geometry" />
        </mxCell>
        <mxCell id="vfYZdor9qe7EB0yujMtW-22" value="deal with system" style="rounded=1;whiteSpace=wrap;html=1;" vertex="1" parent="1">
          <mxGeometry x="1050" y="200" width="120" height="130" as="geometry" />
        </mxCell>
        <mxCell id="vfYZdor9qe7EB0yujMtW-26" style="edgeStyle=orthogonalEdgeStyle;rounded=0;orthogonalLoop=1;jettySize=auto;html=1;entryX=0.5;entryY=1;entryDx=0;entryDy=0;exitX=1;exitY=0.5;exitDx=0;exitDy=0;" edge="1" parent="1" source="vfYZdor9qe7EB0yujMtW-25" target="vfYZdor9qe7EB0yujMtW-22">
          <mxGeometry relative="1" as="geometry" />
        </mxCell>
        <mxCell id="vfYZdor9qe7EB0yujMtW-25" value="&lt;div&gt;Handle Authentication&lt;/div&gt;&lt;div&gt;accountselect&lt;br&gt;&lt;/div&gt;" style="rounded=0;whiteSpace=wrap;html=1;" vertex="1" parent="1">
          <mxGeometry x="930" y="450" width="120" height="60" as="geometry" />
        </mxCell>
        <mxCell id="vfYZdor9qe7EB0yujMtW-27" value="&lt;div&gt;autologin: true&lt;/div&gt;" style="rounded=1;whiteSpace=wrap;html=1;" vertex="1" parent="1">
          <mxGeometry x="940" y="592.5" width="120" height="45" as="geometry" />
        </mxCell>
      </root>
    </mxGraphModel>
  </diagram>
</mxfile>
